<svg width="67" height="45" viewBox="0 0 67 45" fill="none" xmlns="http://www.w3.org/2000/svg">
<rect x="0.5" y="0.5" width="66" height="30" rx="15" fill="#6A6A6A" stroke="#A29F9F"/>
<path d="M15.81 42L13.86 35.4H14.69L16.32 41.27L17.87 35.4H18.78L20.33 41.29L21.96 35.4H22.75L20.81 42H19.82L18.65 37.72L18.31 36.23H18.3L17.96 37.72L16.8 42H15.81ZM25.7676 36.9C26.2409 36.9 26.6576 37.0033 27.0176 37.21C27.3842 37.4167 27.6709 37.7167 27.8776 38.11C28.0842 38.4967 28.1876 38.96 28.1876 39.5C28.1876 40.04 28.0842 40.5067 27.8776 40.9C27.6709 41.2867 27.3842 41.5833 27.0176 41.79C26.6576 41.9967 26.2409 42.1 25.7676 42.1C25.3009 42.1 24.8842 41.9967 24.5176 41.79C24.1509 41.5833 23.8642 41.2867 23.6576 40.9C23.4509 40.5067 23.3476 40.04 23.3476 39.5C23.3476 38.96 23.4509 38.4967 23.6576 38.11C23.8642 37.7167 24.1509 37.4167 24.5176 37.21C24.8842 37.0033 25.3009 36.9 25.7676 36.9ZM25.7676 37.59C25.4276 37.59 25.1376 37.6667 24.8976 37.82C24.6576 37.9733 24.4709 38.1933 24.3376 38.48C24.2109 38.76 24.1476 39.1 24.1476 39.5C24.1476 39.8933 24.2109 40.2333 24.3376 40.52C24.4709 40.8067 24.6576 41.0267 24.8976 41.18C25.1376 41.3333 25.4276 41.41 25.7676 41.41C26.1076 41.41 26.3976 41.3333 26.6376 41.18C26.8776 41.0267 27.0609 40.8067 27.1876 40.52C27.3209 40.2333 27.3876 39.8933 27.3876 39.5C27.3876 39.1 27.3209 38.76 27.1876 38.48C27.0609 38.1933 26.8776 37.9733 26.6376 37.82C26.3976 37.6667 26.1076 37.59 25.7676 37.59ZM29.6937 42V37H30.3437L30.4537 37.82C30.5937 37.5133 30.797 37.2833 31.0637 37.13C31.337 36.9767 31.667 36.9 32.0537 36.9C32.1403 36.9 32.2337 36.9067 32.3337 36.92C32.4403 36.9333 32.5303 36.96 32.6037 37L32.4637 37.73C32.3903 37.7033 32.3103 37.6833 32.2237 37.67C32.137 37.6567 32.0137 37.65 31.8537 37.65C31.647 37.65 31.437 37.71 31.2237 37.83C31.017 37.95 30.8437 38.1333 30.7037 38.38C30.5637 38.62 30.4937 38.9267 30.4937 39.3V42H29.6937ZM38.1657 37L36.0057 39.16L35.8157 39.35L34.1757 40.99V39.99L37.1557 37H38.1657ZM34.5757 34.7V42H33.7757V34.7H34.5757ZM36.0757 38.75L38.2857 42H37.3157L35.4057 39.2L36.0757 38.75ZM39.8495 36.04C39.6695 36.04 39.5229 35.9867 39.4095 35.88C39.3029 35.7667 39.2495 35.62 39.2495 35.44C39.2495 35.26 39.3029 35.1167 39.4095 35.01C39.5229 34.8967 39.6695 34.84 39.8495 34.84C40.0295 34.84 40.1729 34.8967 40.2795 35.01C40.3929 35.1167 40.4495 35.26 40.4495 35.44C40.4495 35.62 40.3929 35.7667 40.2795 35.88C40.1729 35.9867 40.0295 36.04 39.8495 36.04ZM40.2495 37V42H39.4495V37H40.2495ZM42.1058 42V37H42.8058L42.8758 38.12L42.7458 38.01C42.8524 37.7433 42.9958 37.53 43.1758 37.37C43.3558 37.2033 43.5624 37.0833 43.7958 37.01C44.0358 36.9367 44.2824 36.9 44.5358 36.9C44.8958 36.9 45.2224 36.97 45.5158 37.11C45.8091 37.2433 46.0424 37.45 46.2158 37.73C46.3958 38.01 46.4858 38.3667 46.4858 38.8V42H45.6858V39.08C45.6858 38.5267 45.5658 38.1433 45.3258 37.93C45.0924 37.71 44.8024 37.6 44.4558 37.6C44.2158 37.6 43.9758 37.6567 43.7358 37.77C43.4958 37.8833 43.2958 38.0667 43.1358 38.32C42.9824 38.5733 42.9058 38.9133 42.9058 39.34V42H42.1058ZM52.5072 36.08L52.6872 36.79C52.6805 36.79 52.6705 36.79 52.6572 36.79C52.6439 36.79 52.6305 36.79 52.6172 36.79C52.2905 36.79 52.0372 36.8567 51.8572 36.99C51.6839 37.1167 51.5972 37.3233 51.5972 37.61L51.1072 37.36C51.1072 37.1 51.1672 36.8733 51.2872 36.68C51.4072 36.4867 51.5705 36.34 51.7772 36.24C51.9839 36.1333 52.2105 36.08 52.4572 36.08C52.4639 36.08 52.4705 36.08 52.4772 36.08C52.4905 36.08 52.5005 36.08 52.5072 36.08ZM50.9872 41.36C51.4605 41.36 51.8305 41.47 52.0972 41.69C52.3639 41.9033 52.4972 42.19 52.4972 42.55C52.4972 42.8767 52.3872 43.16 52.1672 43.4C51.9539 43.64 51.6639 43.8233 51.2972 43.95C50.9372 44.0833 50.5305 44.15 50.0772 44.15C49.2905 44.15 48.7005 44.0167 48.3072 43.75C47.9205 43.4833 47.7272 43.1633 47.7272 42.79C47.7272 42.5233 47.8139 42.2833 47.9872 42.07C48.1672 41.8633 48.4672 41.7467 48.8872 41.72L48.8172 41.87C48.5905 41.81 48.3972 41.71 48.2372 41.57C48.0839 41.4233 48.0072 41.2133 48.0072 40.94C48.0072 40.6667 48.1072 40.4333 48.3072 40.24C48.5139 40.04 48.8172 39.9167 49.2172 39.87L49.7472 40.14H49.6472C49.3205 40.1733 49.0872 40.2567 48.9472 40.39C48.8139 40.5167 48.7472 40.6567 48.7472 40.81C48.7472 40.9967 48.8139 41.1367 48.9472 41.23C49.0872 41.3167 49.2805 41.36 49.5272 41.36H50.9872ZM50.0672 43.48C50.4539 43.48 50.7705 43.44 51.0172 43.36C51.2705 43.28 51.4572 43.1767 51.5772 43.05C51.6972 42.9233 51.7572 42.7867 51.7572 42.64C51.7572 42.46 51.6839 42.3167 51.5372 42.21C51.3972 42.1033 51.1405 42.05 50.7672 42.05H49.2272C49.0139 42.05 48.8339 42.1033 48.6872 42.21C48.5405 42.3233 48.4672 42.4767 48.4672 42.67C48.4672 42.9167 48.6072 43.1133 48.8872 43.26C49.1739 43.4067 49.5672 43.48 50.0672 43.48ZM49.9972 36.9C50.3972 36.9 50.7505 36.9733 51.0572 37.12C51.3705 37.26 51.6139 37.4567 51.7872 37.71C51.9605 37.9633 52.0472 38.2567 52.0472 38.59C52.0472 38.9167 51.9605 39.21 51.7872 39.47C51.6139 39.7233 51.3705 39.9233 51.0572 40.07C50.7505 40.21 50.3972 40.28 49.9972 40.28C49.3372 40.28 48.8305 40.1233 48.4772 39.81C48.1239 39.49 47.9472 39.0833 47.9472 38.59C47.9472 38.2567 48.0339 37.9633 48.2072 37.71C48.3872 37.4567 48.6305 37.26 48.9372 37.12C49.2439 36.9733 49.5972 36.9 49.9972 36.9ZM49.9972 37.55C49.6505 37.55 49.3605 37.6467 49.1272 37.84C48.8939 38.0267 48.7772 38.2767 48.7772 38.59C48.7772 38.8967 48.8939 39.1467 49.1272 39.34C49.3605 39.5333 49.6505 39.63 49.9972 39.63C50.3439 39.63 50.6339 39.5333 50.8672 39.34C51.1005 39.1467 51.2172 38.8967 51.2172 38.59C51.2172 38.2767 51.1005 38.0267 50.8672 37.84C50.6339 37.6467 50.3439 37.55 49.9972 37.55Z" fill="#333333"/>
<g filter="url(#filter0_d_55_229)">
<circle cx="16.5" cy="15.5" r="12.5" fill="#D9D9D9"/>
</g>
<path d="M49.6005 5.08034C50.6804 5.16901 51.6676 5.38451 52.3486 6.0625C53.0436 6.75356 53.257 7.75615 53.2448 8.99108C53.2406 9.41958 53.1782 9.93765 53.1132 10.416C53.0851 10.6141 53.0581 10.8042 53.0313 10.9824L52.9708 11.4073L55.0316 11.4326C55.7875 11.4419 56.4842 11.5576 57.0744 11.8585C57.6866 12.1696 58.1343 12.6522 58.4226 13.2947C58.9647 14.5056 58.9382 16.285 58.5943 18.6478L58.5392 19.034C58.3947 20.0342 58.2717 20.8878 58.116 21.5882C57.9414 22.3748 57.7054 23.0673 57.2758 23.6116C56.3697 24.7591 54.8548 24.9429 52.6553 24.9159C50.312 24.8871 48.5579 24.4508 47.0901 24.03L46.4866 23.854C45.4611 23.5537 44.63 23.3093 43.7882 23.2395C43.7415 23.6681 43.5348 24.0639 43.2082 24.3496C42.8816 24.6353 42.4586 24.7906 42.0216 24.7852L40.5137 24.7666C40.0471 24.7609 39.6015 24.5725 39.2748 24.2429C38.948 23.9133 38.767 23.4695 38.7715 23.0091L38.8737 12.5941C38.8831 11.6359 39.6788 10.8679 40.6499 10.8799L42.1578 10.8984C42.604 10.9039 43.0319 11.0765 43.3548 11.3812C43.6778 11.686 43.8716 12.1001 43.8971 12.5398C44.0781 12.5242 44.2556 12.4826 44.4242 12.4163C45.3943 12.0165 47.2277 10.929 47.2536 8.28452L47.2639 7.24004C47.2757 6.02991 48.2935 4.97301 49.6005 5.08034ZM43.8108 21.7497C44.8748 21.8263 45.8973 22.1275 46.9389 22.435L47.5083 22.6007C48.9179 23.0049 50.5227 23.4016 52.6699 23.428C54.9589 23.4561 55.6924 23.1933 56.0854 22.6952C56.3052 22.4171 56.4824 21.9878 56.6423 21.2656C56.7853 20.6225 56.8997 19.8303 57.0474 18.8133L57.1014 18.433C57.4464 16.0564 57.3926 14.6718 57.0434 13.8938C56.8859 13.5426 56.6719 13.3257 56.3868 13.1804C56.0817 13.0248 55.6453 12.9282 55.017 12.9205L52.6345 12.8912C51.9499 12.8828 51.3403 12.3098 51.4301 11.559C51.4586 11.3183 51.5006 11.0271 51.5437 10.733L51.6192 10.2111C51.6842 9.73378 51.7337 9.29888 51.7369 8.97254C51.7479 7.85664 51.5386 7.36599 51.2797 7.10885C51.0059 6.83763 50.506 6.64797 49.4804 6.56294C49.1277 6.5348 48.776 6.8261 48.7718 7.25857L48.7615 8.30306C48.727 11.8243 46.2112 13.2944 45.0079 13.7895C44.6324 13.9436 44.2477 14.0103 43.8865 14.0336L43.8108 21.7497ZM40.5283 23.2787L42.0362 23.2973C42.1029 23.2981 42.167 23.2728 42.2146 23.2268C42.2622 23.1809 42.2893 23.1182 42.29 23.0524L42.3921 12.6373C42.3928 12.5716 42.3669 12.5082 42.3202 12.4611C42.2736 12.414 42.2099 12.3871 42.1432 12.3863L40.6353 12.3677C40.5687 12.3669 40.5045 12.3922 40.4569 12.4382C40.4093 12.4841 40.3822 12.5468 40.3816 12.6126L40.2794 23.0277C40.2781 23.1646 40.3896 23.277 40.5283 23.2787Z" fill="#B7B7B7"/>
<defs>
<filter id="filter0_d_55_229" x="0" y="3" width="33" height="33" filterUnits="userSpaceOnUse" color-interpolation-filters="sRGB">
<feFlood flood-opacity="0" result="BackgroundImageFix"/>
<feColorMatrix in="SourceAlpha" type="matrix" values="0 0 0 0 0 0 0 0 0 0 0 0 0 0 0 0 0 0 127 0" result="hardAlpha"/>
<feOffset dy="4"/>
<feGaussianBlur stdDeviation="2"/>
<feComposite in2="hardAlpha" operator="out"/>
<feColorMatrix type="matrix" values="0 0 0 0 0 0 0 0 0 0 0 0 0 0 0 0 0 0 0.25 0"/>
<feBlend mode="normal" in2="BackgroundImageFix" result="effect1_dropShadow_55_229"/>
<feBlend mode="normal" in="SourceGraphic" in2="effect1_dropShadow_55_229" result="shape"/>
</filter>
</defs>
</svg>
