<svg width="108" height="81" viewBox="0 0 108 81" fill="none" xmlns="http://www.w3.org/2000/svg">
<g filter="url(#filter0_d_116_695)">
<path d="M4 5C4 2.23857 6.23858 0 9 0H99C101.761 0 104 2.23858 104 5V68C104 70.7614 101.761 73 99 73H9C6.23858 73 4 70.7614 4 68V5Z" fill="#F4F4F4" shape-rendering="crispEdges"/>
<path d="M18.224 8.08C18.792 8.08 19.28 8.18 19.688 8.38C20.104 8.58 20.428 8.864 20.66 9.232C20.892 9.6 21.008 10.044 21.008 10.564C21.008 11.076 20.892 11.52 20.66 11.896C20.428 12.264 20.104 12.548 19.688 12.748C19.28 12.948 18.792 13.048 18.224 13.048H16.46V16H15.176V8.08H18.224ZM18.02 11.944C18.588 11.944 19.004 11.828 19.268 11.596C19.54 11.356 19.676 11.012 19.676 10.564C19.676 10.108 19.54 9.764 19.268 9.532C19.004 9.292 18.588 9.172 18.02 9.172H16.46V11.944H18.02ZM24.9945 9.88C25.5785 9.88 26.0945 10.004 26.5425 10.252C26.9905 10.5 27.3385 10.86 27.5865 11.332C27.8425 11.796 27.9705 12.352 27.9705 13C27.9705 13.648 27.8425 14.208 27.5865 14.68C27.3385 15.144 26.9905 15.5 26.5425 15.748C26.0945 15.996 25.5785 16.12 24.9945 16.12C24.4105 16.12 23.8945 15.996 23.4465 15.748C22.9985 15.5 22.6465 15.144 22.3905 14.68C22.1345 14.208 22.0065 13.648 22.0065 13C22.0065 12.352 22.1345 11.796 22.3905 11.332C22.6465 10.86 22.9985 10.5 23.4465 10.252C23.8945 10.004 24.4105 9.88 24.9945 9.88ZM24.9945 10.888C24.6345 10.888 24.3265 10.972 24.0705 11.14C23.8225 11.3 23.6305 11.536 23.4945 11.848C23.3585 12.16 23.2905 12.544 23.2905 13C23.2905 13.448 23.3585 13.832 23.4945 14.152C23.6305 14.464 23.8225 14.704 24.0705 14.872C24.3265 15.032 24.6345 15.112 24.9945 15.112C25.3545 15.112 25.6585 15.032 25.9065 14.872C26.1545 14.704 26.3465 14.464 26.4825 14.152C26.6185 13.832 26.6865 13.448 26.6865 13C26.6865 12.544 26.6185 12.16 26.4825 11.848C26.3465 11.536 26.1545 11.3 25.9065 11.14C25.6585 10.972 25.3545 10.888 24.9945 10.888ZM37.0421 10H38.4341L36.4181 16H35.0141L33.5021 11.548L32.0741 16H30.6701L28.6661 10H30.0461L31.4141 14.74L32.9021 10H34.1861L35.6741 14.74L37.0421 10ZM42.1399 16.12C41.5399 16.12 41.0119 15.996 40.5559 15.748C40.0999 15.5 39.7439 15.144 39.4879 14.68C39.2399 14.208 39.1159 13.648 39.1159 13C39.1159 12.352 39.2399 11.796 39.4879 11.332C39.7439 10.86 40.0959 10.5 40.5439 10.252C40.9919 10.004 41.4999 9.88 42.0679 9.88C42.6519 9.88 43.1479 10 43.5559 10.24C43.9639 10.48 44.2759 10.808 44.4919 11.224C44.7079 11.64 44.8159 12.112 44.8159 12.64C44.8159 12.784 44.8119 12.92 44.8039 13.048C44.7959 13.176 44.7839 13.288 44.7679 13.384H39.9439V12.4H44.2039L43.5679 12.592C43.5679 12.048 43.4319 11.632 43.1599 11.344C42.8879 11.048 42.5159 10.9 42.0439 10.9C41.6999 10.9 41.3999 10.98 41.1439 11.14C40.8879 11.3 40.6919 11.54 40.5559 11.86C40.4199 12.172 40.3519 12.556 40.3519 13.012C40.3519 13.46 40.4239 13.84 40.5679 14.152C40.7119 14.464 40.9159 14.7 41.1799 14.86C41.4439 15.02 41.7559 15.1 42.1159 15.1C42.5159 15.1 42.8399 15.024 43.0879 14.872C43.3359 14.72 43.5319 14.508 43.6759 14.236L44.6959 14.716C44.5519 15.004 44.3559 15.256 44.1079 15.472C43.8679 15.68 43.5799 15.84 43.2439 15.952C42.9079 16.064 42.5399 16.12 42.1399 16.12ZM46.4374 16V10H47.5294L47.6494 11.08C47.8094 10.688 48.0454 10.392 48.3574 10.192C48.6774 9.984 49.0694 9.88 49.5334 9.88C49.6534 9.88 49.7734 9.892 49.8934 9.916C50.0134 9.932 50.1134 9.96 50.1934 10L50.0134 11.128C49.9254 11.096 49.8254 11.072 49.7134 11.056C49.6094 11.032 49.4654 11.02 49.2814 11.02C49.0334 11.02 48.7894 11.088 48.5494 11.224C48.3094 11.352 48.1094 11.548 47.9494 11.812C47.7974 12.076 47.7214 12.412 47.7214 12.82V16H46.4374ZM55.2307 16V8.08H58.3507C59.3027 8.08 59.9987 8.272 60.4387 8.656C60.8787 9.04 61.0987 9.572 61.0987 10.252C61.0987 10.668 60.9787 11.04 60.7387 11.368C60.4987 11.688 60.1467 11.892 59.6827 11.98V11.992C60.1947 12.072 60.5907 12.284 60.8707 12.628C61.1587 12.964 61.3027 13.356 61.3027 13.804C61.3027 14.484 61.0547 15.02 60.5587 15.412C60.0627 15.804 59.3427 16 58.3987 16H55.2307ZM56.4907 14.932H58.4587C58.9627 14.932 59.3387 14.828 59.5867 14.62C59.8427 14.412 59.9707 14.12 59.9707 13.744C59.9707 13.368 59.8427 13.076 59.5867 12.868C59.3387 12.66 58.9627 12.556 58.4587 12.556H56.4907V14.932ZM56.4907 11.488H58.2547C59.2627 11.488 59.7667 11.1 59.7667 10.324C59.7667 9.548 59.2627 9.16 58.2547 9.16H56.4907V11.488ZM65.132 16.12C64.74 16.12 64.376 16.048 64.04 15.904C63.712 15.76 63.448 15.528 63.248 15.208C63.048 14.888 62.948 14.472 62.948 13.96V10H64.232V13.636C64.232 14.18 64.348 14.556 64.58 14.764C64.812 14.964 65.136 15.064 65.552 15.064C65.752 15.064 65.944 15.032 66.128 14.968C66.32 14.896 66.492 14.788 66.644 14.644C66.796 14.492 66.912 14.3 66.992 14.068C67.08 13.836 67.124 13.564 67.124 13.252V10H68.408V16H67.28L67.22 15.028C67.012 15.404 66.732 15.68 66.38 15.856C66.028 16.032 65.612 16.12 65.132 16.12ZM72.166 8.236V14.2C72.166 14.496 72.242 14.712 72.394 14.848C72.554 14.984 72.766 15.052 73.03 15.052C73.246 15.052 73.434 15.02 73.594 14.956C73.754 14.884 73.902 14.788 74.038 14.668L74.326 15.604C74.142 15.764 73.914 15.892 73.642 15.988C73.378 16.076 73.082 16.12 72.754 16.12C72.41 16.12 72.094 16.064 71.806 15.952C71.518 15.84 71.294 15.66 71.134 15.412C70.974 15.156 70.89 14.824 70.882 14.416V8.596L72.166 8.236ZM74.23 10V11.008H69.73V10H74.23ZM76.5722 8.236V14.2C76.5722 14.496 76.6482 14.712 76.8002 14.848C76.9602 14.984 77.1722 15.052 77.4362 15.052C77.6522 15.052 77.8402 15.02 78.0002 14.956C78.1602 14.884 78.3082 14.788 78.4442 14.668L78.7322 15.604C78.5482 15.764 78.3202 15.892 78.0482 15.988C77.7842 16.076 77.4882 16.12 77.1602 16.12C76.8162 16.12 76.5002 16.064 76.2122 15.952C75.9242 15.84 75.7002 15.66 75.5402 15.412C75.3802 15.156 75.2962 14.824 75.2882 14.416V8.596L76.5722 8.236ZM78.6362 10V11.008H74.1362V10H78.6362ZM82.5102 9.88C83.0942 9.88 83.6102 10.004 84.0582 10.252C84.5062 10.5 84.8542 10.86 85.1022 11.332C85.3582 11.796 85.4862 12.352 85.4862 13C85.4862 13.648 85.3582 14.208 85.1022 14.68C84.8542 15.144 84.5062 15.5 84.0582 15.748C83.6102 15.996 83.0942 16.12 82.5102 16.12C81.9262 16.12 81.4102 15.996 80.9622 15.748C80.5142 15.5 80.1622 15.144 79.9062 14.68C79.6502 14.208 79.5222 13.648 79.5222 13C79.5222 12.352 79.6502 11.796 79.9062 11.332C80.1622 10.86 80.5142 10.5 80.9622 10.252C81.4102 10.004 81.9262 9.88 82.5102 9.88ZM82.5102 10.888C82.1502 10.888 81.8422 10.972 81.5862 11.14C81.3382 11.3 81.1462 11.536 81.0102 11.848C80.8742 12.16 80.8062 12.544 80.8062 13C80.8062 13.448 80.8742 13.832 81.0102 14.152C81.1462 14.464 81.3382 14.704 81.5862 14.872C81.8422 15.032 82.1502 15.112 82.5102 15.112C82.8702 15.112 83.1742 15.032 83.4222 14.872C83.6702 14.704 83.8622 14.464 83.9982 14.152C84.1342 13.832 84.2022 13.448 84.2022 13C84.2022 12.544 84.1342 12.16 83.9982 11.848C83.8622 11.536 83.6702 11.3 83.4222 11.14C83.1742 10.972 82.8702 10.888 82.5102 10.888ZM87.1015 16V10H88.2415L88.3255 11.56L88.1575 11.392C88.2695 11.048 88.4295 10.764 88.6375 10.54C88.8535 10.308 89.1055 10.14 89.3935 10.036C89.6895 9.932 90.0015 9.88 90.3295 9.88C90.7535 9.88 91.1335 9.964 91.4695 10.132C91.8135 10.292 92.0855 10.536 92.2855 10.864C92.4855 11.192 92.5855 11.608 92.5855 12.112V16H91.3015V12.508C91.3015 11.916 91.1775 11.508 90.9295 11.284C90.6895 11.052 90.3855 10.936 90.0175 10.936C89.7535 10.936 89.4975 11 89.2495 11.128C89.0015 11.248 88.7935 11.444 88.6255 11.716C88.4655 11.988 88.3855 12.352 88.3855 12.808V16H87.1015Z" fill="#333333"/>
<rect x="23.5" y="23.5" width="61" height="31" rx="15.5" fill="#6A6A6A" stroke="#A19F9F"/>
<path d="M36.31 65L34.36 58.4H35.19L36.82 64.27L38.37 58.4H39.28L40.83 64.29L42.46 58.4H43.25L41.31 65H40.32L39.15 60.72L38.81 59.23H38.8L38.46 60.72L37.3 65H36.31ZM46.2676 59.9C46.7409 59.9 47.1576 60.0033 47.5176 60.21C47.8842 60.4167 48.1709 60.7167 48.3776 61.11C48.5842 61.4967 48.6876 61.96 48.6876 62.5C48.6876 63.04 48.5842 63.5067 48.3776 63.9C48.1709 64.2867 47.8842 64.5833 47.5176 64.79C47.1576 64.9967 46.7409 65.1 46.2676 65.1C45.8009 65.1 45.3842 64.9967 45.0176 64.79C44.6509 64.5833 44.3642 64.2867 44.1576 63.9C43.9509 63.5067 43.8476 63.04 43.8476 62.5C43.8476 61.96 43.9509 61.4967 44.1576 61.11C44.3642 60.7167 44.6509 60.4167 45.0176 60.21C45.3842 60.0033 45.8009 59.9 46.2676 59.9ZM46.2676 60.59C45.9276 60.59 45.6376 60.6667 45.3976 60.82C45.1576 60.9733 44.9709 61.1933 44.8376 61.48C44.7109 61.76 44.6476 62.1 44.6476 62.5C44.6476 62.8933 44.7109 63.2333 44.8376 63.52C44.9709 63.8067 45.1576 64.0267 45.3976 64.18C45.6376 64.3333 45.9276 64.41 46.2676 64.41C46.6076 64.41 46.8976 64.3333 47.1376 64.18C47.3776 64.0267 47.5609 63.8067 47.6876 63.52C47.8209 63.2333 47.8876 62.8933 47.8876 62.5C47.8876 62.1 47.8209 61.76 47.6876 61.48C47.5609 61.1933 47.3776 60.9733 47.1376 60.82C46.8976 60.6667 46.6076 60.59 46.2676 60.59ZM50.1937 65V60H50.8437L50.9537 60.82C51.0937 60.5133 51.297 60.2833 51.5637 60.13C51.837 59.9767 52.167 59.9 52.5537 59.9C52.6403 59.9 52.7337 59.9067 52.8337 59.92C52.9403 59.9333 53.0303 59.96 53.1037 60L52.9637 60.73C52.8903 60.7033 52.8103 60.6833 52.7237 60.67C52.637 60.6567 52.5137 60.65 52.3537 60.65C52.147 60.65 51.937 60.71 51.7237 60.83C51.517 60.95 51.3437 61.1333 51.2037 61.38C51.0637 61.62 50.9937 61.9267 50.9937 62.3V65H50.1937ZM58.6657 60L56.5057 62.16L56.3157 62.35L54.6757 63.99V62.99L57.6557 60H58.6657ZM55.0757 57.7V65H54.2757V57.7H55.0757ZM56.5757 61.75L58.7857 65H57.8157L55.9057 62.2L56.5757 61.75ZM60.3495 59.04C60.1695 59.04 60.0229 58.9867 59.9095 58.88C59.8029 58.7667 59.7495 58.62 59.7495 58.44C59.7495 58.26 59.8029 58.1167 59.9095 58.01C60.0229 57.8967 60.1695 57.84 60.3495 57.84C60.5295 57.84 60.6729 57.8967 60.7795 58.01C60.8929 58.1167 60.9495 58.26 60.9495 58.44C60.9495 58.62 60.8929 58.7667 60.7795 58.88C60.6729 58.9867 60.5295 59.04 60.3495 59.04ZM60.7495 60V65H59.9495V60H60.7495ZM62.6058 65V60H63.3058L63.3758 61.12L63.2458 61.01C63.3524 60.7433 63.4958 60.53 63.6758 60.37C63.8558 60.2033 64.0624 60.0833 64.2958 60.01C64.5358 59.9367 64.7824 59.9 65.0358 59.9C65.3958 59.9 65.7224 59.97 66.0158 60.11C66.3091 60.2433 66.5424 60.45 66.7158 60.73C66.8958 61.01 66.9858 61.3667 66.9858 61.8V65H66.1858V62.08C66.1858 61.5267 66.0658 61.1433 65.8258 60.93C65.5924 60.71 65.3024 60.6 64.9558 60.6C64.7158 60.6 64.4758 60.6567 64.2358 60.77C63.9958 60.8833 63.7958 61.0667 63.6358 61.32C63.4824 61.5733 63.4058 61.9133 63.4058 62.34V65H62.6058ZM73.0072 59.08L73.1872 59.79C73.1805 59.79 73.1705 59.79 73.1572 59.79C73.1439 59.79 73.1305 59.79 73.1172 59.79C72.7905 59.79 72.5372 59.8567 72.3572 59.99C72.1839 60.1167 72.0972 60.3233 72.0972 60.61L71.6072 60.36C71.6072 60.1 71.6672 59.8733 71.7872 59.68C71.9072 59.4867 72.0705 59.34 72.2772 59.24C72.4839 59.1333 72.7105 59.08 72.9572 59.08C72.9639 59.08 72.9705 59.08 72.9772 59.08C72.9905 59.08 73.0005 59.08 73.0072 59.08ZM71.4872 64.36C71.9605 64.36 72.3305 64.47 72.5972 64.69C72.8639 64.9033 72.9972 65.19 72.9972 65.55C72.9972 65.8767 72.8872 66.16 72.6672 66.4C72.4539 66.64 72.1639 66.8233 71.7972 66.95C71.4372 67.0833 71.0305 67.15 70.5772 67.15C69.7905 67.15 69.2005 67.0167 68.8072 66.75C68.4205 66.4833 68.2272 66.1633 68.2272 65.79C68.2272 65.5233 68.3139 65.2833 68.4872 65.07C68.6672 64.8633 68.9672 64.7467 69.3872 64.72L69.3172 64.87C69.0905 64.81 68.8972 64.71 68.7372 64.57C68.5839 64.4233 68.5072 64.2133 68.5072 63.94C68.5072 63.6667 68.6072 63.4333 68.8072 63.24C69.0139 63.04 69.3172 62.9167 69.7172 62.87L70.2472 63.14H70.1472C69.8205 63.1733 69.5872 63.2567 69.4472 63.39C69.3139 63.5167 69.2472 63.6567 69.2472 63.81C69.2472 63.9967 69.3139 64.1367 69.4472 64.23C69.5872 64.3167 69.7805 64.36 70.0272 64.36H71.4872ZM70.5672 66.48C70.9539 66.48 71.2705 66.44 71.5172 66.36C71.7705 66.28 71.9572 66.1767 72.0772 66.05C72.1972 65.9233 72.2572 65.7867 72.2572 65.64C72.2572 65.46 72.1839 65.3167 72.0372 65.21C71.8972 65.1033 71.6405 65.05 71.2672 65.05H69.7272C69.5139 65.05 69.3339 65.1033 69.1872 65.21C69.0405 65.3233 68.9672 65.4767 68.9672 65.67C68.9672 65.9167 69.1072 66.1133 69.3872 66.26C69.6739 66.4067 70.0672 66.48 70.5672 66.48ZM70.4972 59.9C70.8972 59.9 71.2505 59.9733 71.5572 60.12C71.8705 60.26 72.1139 60.4567 72.2872 60.71C72.4605 60.9633 72.5472 61.2567 72.5472 61.59C72.5472 61.9167 72.4605 62.21 72.2872 62.47C72.1139 62.7233 71.8705 62.9233 71.5572 63.07C71.2505 63.21 70.8972 63.28 70.4972 63.28C69.8372 63.28 69.3305 63.1233 68.9772 62.81C68.6239 62.49 68.4472 62.0833 68.4472 61.59C68.4472 61.2567 68.5339 60.9633 68.7072 60.71C68.8872 60.4567 69.1305 60.26 69.4372 60.12C69.7439 59.9733 70.0972 59.9 70.4972 59.9ZM70.4972 60.55C70.1505 60.55 69.8605 60.6467 69.6272 60.84C69.3939 61.0267 69.2772 61.2767 69.2772 61.59C69.2772 61.8967 69.3939 62.1467 69.6272 62.34C69.8605 62.5333 70.1505 62.63 70.4972 62.63C70.8439 62.63 71.1339 62.5333 71.3672 62.34C71.6005 62.1467 71.7172 61.8967 71.7172 61.59C71.7172 61.2767 71.6005 61.0267 71.3672 60.84C71.1339 60.6467 70.8439 60.55 70.4972 60.55Z" fill="#6A6A6A"/>
<g filter="url(#filter1_d_116_695)">
<circle cx="40" cy="39" r="12" fill="#D9D9D9"/>
</g>
<path d="M67.8461 28.1364C68.926 28.225 69.9132 28.4405 70.5942 29.1185C71.2892 29.8096 71.5026 30.8122 71.4904 32.0471C71.4862 32.4756 71.4239 32.9937 71.3588 33.472C71.3308 33.6701 71.3038 33.8602 71.2769 34.0385L71.2164 34.4633L73.2772 34.4886C74.0332 34.4979 74.7298 34.6136 75.32 34.9145C75.9322 35.2256 76.3799 35.7083 76.6682 36.3507C77.2103 37.5617 77.1838 39.3411 76.8399 41.7038L76.7848 42.09C76.6403 43.0902 76.5173 43.9438 76.3616 44.6443C76.187 45.4308 75.951 46.1233 75.5214 46.6676C74.6153 47.8152 73.1004 47.9989 70.9009 47.9719C68.5576 47.9431 66.8035 47.5069 65.3357 47.086L64.7322 46.91C63.7067 46.6097 62.8756 46.3654 62.0338 46.2955C61.9871 46.7242 61.7804 47.1199 61.4538 47.4056C61.1272 47.6914 60.7043 47.8466 60.2672 47.8412L58.7593 47.8226C58.2928 47.8169 57.8471 47.6285 57.5204 47.2989C57.1936 46.9694 57.0126 46.5256 57.0171 46.0652L57.1193 35.6501C57.1287 34.6919 57.9245 33.9239 58.8955 33.9359L60.4034 33.9544C60.8496 33.9599 61.2775 34.1325 61.6004 34.4373C61.9234 34.742 62.1172 35.1561 62.1427 35.5958C62.3237 35.5803 62.5012 35.5387 62.6698 35.4723C63.6399 35.0725 65.4733 33.985 65.4992 31.3406L65.5095 30.2961C65.5214 29.0859 66.5391 28.029 67.8461 28.1364ZM62.0564 44.8057C63.1204 44.8823 64.1429 45.1835 65.1845 45.491L65.7539 45.6567C67.1635 46.0609 68.7683 46.4576 70.9155 46.484C73.2045 46.5121 73.938 46.2493 74.331 45.7512C74.5508 45.4732 74.728 45.0438 74.8879 44.3216C75.0309 43.6785 75.1453 42.8863 75.293 41.8693L75.347 41.489C75.692 39.1124 75.6382 37.7279 75.289 36.9498C75.1315 36.5987 74.9175 36.3817 74.6324 36.2364C74.3273 36.0809 73.8909 35.9842 73.2626 35.9765L70.8801 35.9472C70.1955 35.9388 69.5859 35.3659 69.6757 34.615C69.7042 34.3743 69.7462 34.0831 69.7893 33.789L69.8648 33.2672C69.9298 32.7898 69.9793 32.3549 69.9825 32.0286C69.9935 30.9127 69.7842 30.422 69.5253 30.1649C69.2515 29.8937 68.7516 29.704 67.726 29.619C67.3733 29.5908 67.0216 29.8821 67.0174 30.3146L67.0071 31.3591C66.9726 34.8804 64.4568 36.3504 63.2535 36.8455C62.878 36.9996 62.4933 37.0663 62.1321 37.0897L62.0564 44.8057ZM58.7739 46.3348L60.2818 46.3533C60.3485 46.3541 60.4126 46.3288 60.4602 46.2829C60.5078 46.2369 60.5349 46.1742 60.5356 46.1084L60.6377 35.6934C60.6384 35.6276 60.6125 35.5642 60.5658 35.5171C60.5192 35.47 60.4555 35.4431 60.3888 35.4423L58.8809 35.4238C58.8143 35.4229 58.7501 35.4483 58.7025 35.4942C58.6549 35.5401 58.6278 35.6029 58.6272 35.6686L58.525 46.0837C58.5237 46.2206 58.6352 46.3331 58.7739 46.3348Z" fill="#B7B7B7"/>
</g>
<defs>
<filter id="filter0_d_116_695" x="0" y="0" width="108" height="81" filterUnits="userSpaceOnUse" color-interpolation-filters="sRGB">
<feFlood flood-opacity="0" result="BackgroundImageFix"/>
<feColorMatrix in="SourceAlpha" type="matrix" values="0 0 0 0 0 0 0 0 0 0 0 0 0 0 0 0 0 0 127 0" result="hardAlpha"/>
<feOffset dy="4"/>
<feGaussianBlur stdDeviation="2"/>
<feComposite in2="hardAlpha" operator="out"/>
<feColorMatrix type="matrix" values="0 0 0 0 0 0 0 0 0 0 0 0 0 0 0 0 0 0 0.25 0"/>
<feBlend mode="normal" in2="BackgroundImageFix" result="effect1_dropShadow_116_695"/>
<feBlend mode="normal" in="SourceGraphic" in2="effect1_dropShadow_116_695" result="shape"/>
</filter>
<filter id="filter1_d_116_695" x="24" y="27" width="32" height="32" filterUnits="userSpaceOnUse" color-interpolation-filters="sRGB">
<feFlood flood-opacity="0" result="BackgroundImageFix"/>
<feColorMatrix in="SourceAlpha" type="matrix" values="0 0 0 0 0 0 0 0 0 0 0 0 0 0 0 0 0 0 127 0" result="hardAlpha"/>
<feOffset dy="4"/>
<feGaussianBlur stdDeviation="2"/>
<feComposite in2="hardAlpha" operator="out"/>
<feColorMatrix type="matrix" values="0 0 0 0 0 0 0 0 0 0 0 0 0 0 0 0 0 0 0.25 0"/>
<feBlend mode="normal" in2="BackgroundImageFix" result="effect1_dropShadow_116_695"/>
<feBlend mode="normal" in="SourceGraphic" in2="effect1_dropShadow_116_695" result="shape"/>
</filter>
</defs>
</svg>
